<mxfile host="Electron" modified="2023-05-14T10:53:21.256Z" agent="Mozilla/5.0 (X11; Linux x86_64) AppleWebKit/537.36 (KHTML, like Gecko) draw.io/21.2.8 Chrome/112.0.5615.165 Electron/24.2.0 Safari/537.36" etag="qIQSN-rEs4p906Y8nDMD" version="21.2.8" type="device">
  <diagram name="ページ1" id="t1M5-0VG3z9s9GtdMvI7">
    <mxGraphModel dx="819" dy="505" grid="1" gridSize="10" guides="1" tooltips="1" connect="1" arrows="0" fold="1" page="1" pageScale="1" pageWidth="850" pageHeight="1100" math="0" shadow="0">
      <root>
        <mxCell id="0" />
        <mxCell id="1" parent="0" />
        <mxCell id="kn0WjjthNi_fgy52XR9l-1" value="&lt;font style=&quot;font-size: 24px;&quot;&gt;x&lt;/font&gt;" style="ellipse;whiteSpace=wrap;html=1;aspect=fixed;fontFamily=Latin Modern Math;fontSize=24;" vertex="1" parent="1">
          <mxGeometry x="240" y="160" width="40" height="40" as="geometry" />
        </mxCell>
        <mxCell id="kn0WjjthNi_fgy52XR9l-2" value="&lt;font style=&quot;font-size: 24px;&quot;&gt;y&lt;/font&gt;" style="ellipse;whiteSpace=wrap;html=1;aspect=fixed;fontFamily=Latin Modern Math;fontSize=24;" vertex="1" parent="1">
          <mxGeometry x="200" y="240" width="40" height="40" as="geometry" />
        </mxCell>
        <mxCell id="kn0WjjthNi_fgy52XR9l-3" value="&lt;font style=&quot;font-size: 24px;&quot;&gt;w&lt;/font&gt;" style="ellipse;whiteSpace=wrap;html=1;aspect=fixed;fontFamily=Latin Modern Math;fontSize=24;" vertex="1" parent="1">
          <mxGeometry x="360" y="240" width="40" height="40" as="geometry" />
        </mxCell>
        <mxCell id="kn0WjjthNi_fgy52XR9l-4" value="&lt;font style=&quot;font-size: 24px;&quot;&gt;z&lt;/font&gt;" style="ellipse;whiteSpace=wrap;html=1;aspect=fixed;fontFamily=Latin Modern Math;fontSize=24;" vertex="1" parent="1">
          <mxGeometry x="400" y="160" width="40" height="40" as="geometry" />
        </mxCell>
        <mxCell id="kn0WjjthNi_fgy52XR9l-7" value="" style="endArrow=none;html=1;rounded=0;entryX=0.5;entryY=1;entryDx=0;entryDy=0;exitX=0.5;exitY=0;exitDx=0;exitDy=0;" edge="1" parent="1" source="kn0WjjthNi_fgy52XR9l-2" target="kn0WjjthNi_fgy52XR9l-1">
          <mxGeometry width="50" height="50" relative="1" as="geometry">
            <mxPoint x="130" y="260" as="sourcePoint" />
            <mxPoint x="180" y="210" as="targetPoint" />
          </mxGeometry>
        </mxCell>
        <mxCell id="kn0WjjthNi_fgy52XR9l-8" value="" style="endArrow=none;html=1;rounded=0;entryX=0.5;entryY=1;entryDx=0;entryDy=0;exitX=0.5;exitY=0;exitDx=0;exitDy=0;" edge="1" parent="1" source="kn0WjjthNi_fgy52XR9l-3" target="kn0WjjthNi_fgy52XR9l-4">
          <mxGeometry width="50" height="50" relative="1" as="geometry">
            <mxPoint x="330" y="280" as="sourcePoint" />
            <mxPoint x="380" y="230" as="targetPoint" />
          </mxGeometry>
        </mxCell>
        <mxCell id="kn0WjjthNi_fgy52XR9l-9" value="" style="endArrow=none;dashed=1;html=1;dashPattern=1 3;strokeWidth=2;rounded=0;" edge="1" parent="1">
          <mxGeometry width="50" height="50" relative="1" as="geometry">
            <mxPoint x="250" y="259.5" as="sourcePoint" />
            <mxPoint x="310" y="259.5" as="targetPoint" />
          </mxGeometry>
        </mxCell>
        <mxCell id="kn0WjjthNi_fgy52XR9l-10" value="" style="endArrow=none;dashed=1;html=1;dashPattern=1 3;strokeWidth=2;rounded=0;" edge="1" parent="1">
          <mxGeometry width="50" height="50" relative="1" as="geometry">
            <mxPoint x="410" y="259.5" as="sourcePoint" />
            <mxPoint x="470" y="260" as="targetPoint" />
          </mxGeometry>
        </mxCell>
        <UserObject label="&lt;font face=&quot;Latin Modern Math&quot;&gt;&lt;span style=&quot;font-size: 20px;&quot;&gt;j+1&lt;br&gt;&lt;/span&gt;&lt;/font&gt;" placeholders="1" name="Variable" id="kn0WjjthNi_fgy52XR9l-11">
          <mxCell style="text;html=1;strokeColor=none;fillColor=none;align=center;verticalAlign=middle;whiteSpace=wrap;overflow=hidden;" vertex="1" parent="1">
            <mxGeometry x="410" y="130" width="80" height="30" as="geometry" />
          </mxCell>
        </UserObject>
        <UserObject label="&lt;font face=&quot;Latin Modern Math&quot;&gt;&lt;span style=&quot;font-size: 20px;&quot;&gt;j&lt;br&gt;&lt;/span&gt;&lt;/font&gt;" placeholders="1" name="Variable" id="kn0WjjthNi_fgy52XR9l-12">
          <mxCell style="text;html=1;strokeColor=none;fillColor=none;align=center;verticalAlign=middle;whiteSpace=wrap;overflow=hidden;" vertex="1" parent="1">
            <mxGeometry x="240" y="130" width="80" height="30" as="geometry" />
          </mxCell>
        </UserObject>
        <UserObject label="&lt;font style=&quot;font-size: 26px;&quot; face=&quot;Latin Modern Math&quot;&gt;0 1・・・10 1・・・10&lt;/font&gt;" placeholders="1" name="Variable" id="kn0WjjthNi_fgy52XR9l-14">
          <mxCell style="text;html=1;strokeColor=none;fillColor=none;align=center;verticalAlign=middle;whiteSpace=wrap;overflow=hidden;" vertex="1" parent="1">
            <mxGeometry x="200" y="330" width="280" height="70" as="geometry" />
          </mxCell>
        </UserObject>
        <mxCell id="kn0WjjthNi_fgy52XR9l-15" value="" style="endArrow=none;dashed=1;html=1;rounded=0;" edge="1" parent="1">
          <mxGeometry width="50" height="50" relative="1" as="geometry">
            <mxPoint x="230" y="430" as="sourcePoint" />
            <mxPoint x="230" y="350" as="targetPoint" />
          </mxGeometry>
        </mxCell>
        <mxCell id="kn0WjjthNi_fgy52XR9l-16" value="" style="endArrow=none;dashed=1;html=1;rounded=0;" edge="1" parent="1">
          <mxGeometry width="50" height="50" relative="1" as="geometry">
            <mxPoint x="350" y="430" as="sourcePoint" />
            <mxPoint x="350" y="350" as="targetPoint" />
          </mxGeometry>
        </mxCell>
        <mxCell id="kn0WjjthNi_fgy52XR9l-19" value="" style="shape=curlyBracket;whiteSpace=wrap;html=1;rounded=1;flipH=1;labelPosition=right;verticalLabelPosition=middle;align=left;verticalAlign=middle;direction=north;" vertex="1" parent="1">
          <mxGeometry x="230" y="410" width="120" height="20" as="geometry" />
        </mxCell>
        <mxCell id="kn0WjjthNi_fgy52XR9l-20" value="" style="shape=curlyBracket;whiteSpace=wrap;html=1;rounded=1;flipH=1;labelPosition=right;verticalLabelPosition=middle;align=left;verticalAlign=middle;direction=north;" vertex="1" parent="1">
          <mxGeometry x="350" y="410" width="120" height="20" as="geometry" />
        </mxCell>
        <UserObject label="&lt;font style=&quot;font-size: 20px;&quot;&gt;&lt;font style=&quot;font-size: 20px;&quot; face=&quot;Latin Modern Math&quot;&gt;x&lt;/font&gt;の子&lt;/font&gt;" placeholders="1" name="Variable" id="kn0WjjthNi_fgy52XR9l-21">
          <mxCell style="text;html=1;strokeColor=none;fillColor=none;align=center;verticalAlign=middle;whiteSpace=wrap;overflow=hidden;" vertex="1" parent="1">
            <mxGeometry x="250" y="430" width="80" height="40" as="geometry" />
          </mxCell>
        </UserObject>
        <UserObject label="&lt;font style=&quot;font-size: 20px;&quot;&gt;&lt;font face=&quot;Latin Modern Math&quot;&gt;y&lt;/font&gt;の子&lt;/font&gt;" placeholders="1" name="Variable" id="kn0WjjthNi_fgy52XR9l-23">
          <mxCell style="text;html=1;strokeColor=none;fillColor=none;align=center;verticalAlign=middle;whiteSpace=wrap;overflow=hidden;" vertex="1" parent="1">
            <mxGeometry x="370" y="430" width="80" height="40" as="geometry" />
          </mxCell>
        </UserObject>
        <UserObject label="&lt;font style=&quot;font-size: 20px;&quot; face=&quot;Latin Modern Math&quot;&gt;&amp;nbsp;y = select&lt;sub&gt;0&lt;/sub&gt;(j) + 1&lt;/font&gt;" placeholders="1" name="Variable" id="kn0WjjthNi_fgy52XR9l-24">
          <mxCell style="text;html=1;strokeColor=none;fillColor=none;align=center;verticalAlign=middle;whiteSpace=wrap;overflow=hidden;" vertex="1" parent="1">
            <mxGeometry x="160" y="300" width="170" height="40" as="geometry" />
          </mxCell>
        </UserObject>
        <mxCell id="kn0WjjthNi_fgy52XR9l-25" value="" style="endArrow=classic;html=1;rounded=0;" edge="1" parent="1">
          <mxGeometry width="50" height="50" relative="1" as="geometry">
            <mxPoint x="236" y="330" as="sourcePoint" />
            <mxPoint x="236" y="350" as="targetPoint" />
          </mxGeometry>
        </mxCell>
        <UserObject label="&lt;font style=&quot;font-size: 20px;&quot; face=&quot;Latin Modern Math&quot;&gt;w&lt;/font&gt;" placeholders="1" name="Variable" id="kn0WjjthNi_fgy52XR9l-26">
          <mxCell style="text;html=1;strokeColor=none;fillColor=none;align=center;verticalAlign=middle;whiteSpace=wrap;overflow=hidden;" vertex="1" parent="1">
            <mxGeometry x="330" y="305" width="80" height="30" as="geometry" />
          </mxCell>
        </UserObject>
        <mxCell id="kn0WjjthNi_fgy52XR9l-27" value="" style="endArrow=classic;html=1;rounded=0;" edge="1" parent="1">
          <mxGeometry width="50" height="50" relative="1" as="geometry">
            <mxPoint x="370" y="330" as="sourcePoint" />
            <mxPoint x="360" y="350" as="targetPoint" />
          </mxGeometry>
        </mxCell>
      </root>
    </mxGraphModel>
  </diagram>
</mxfile>
